<svg width="1440" height="404" viewBox="0 0 1440 404" fill="none" xmlns="http://www.w3.org/2000/svg">
<mask id="mask0_3000_1631" style="mask-type:alpha" maskUnits="userSpaceOnUse" x="0" y="0" width="1440" height="404">
<rect width="1440" height="404" fill="#F6F6F6"/>
</mask>
<g mask="url(#mask0_3000_1631)">
<path d="M176.005 533.242C176.981 536.179 179.053 538.626 181.79 540.071L341.502 624.401C353.614 630.797 347.28 649.228 333.795 646.827L-165.717 557.898C-174.42 556.348 -178.518 546.239 -173.348 539.067L53.3904 224.505C59.1145 216.563 71.4268 218.448 74.5131 227.738L176.005 533.242Z" fill="#E9E9E9"/>
<path d="M-17.7725 302.077C-24.0395 310.837 -37.7801 307.544 -39.3962 296.895L-61.4191 151.787C-62.9316 141.821 -52.2267 134.544 -43.5161 139.617L45.3119 191.346C51.4221 194.904 53.1467 202.948 49.0326 208.698L-17.7725 302.077Z" fill="#E9E9E9"/>
<path d="M315.042 447.003L437.184 543.931C448.433 552.859 437.348 570.423 424.449 564.109L158.115 433.759C155.168 432.317 152.94 429.73 151.949 426.602L110.925 296.991C107.256 285.399 121.169 276.329 130.295 284.363L315.042 447.003Z" fill="#E9E9E9"/>
<path d="M399.667 347.418C402.453 347.951 404.959 349.453 406.743 351.659L577.25 562.491C585.698 572.937 573.221 587.252 561.719 580.31L309.044 427.807C308.41 427.424 307.812 426.983 307.259 426.49L201.503 332.212C192.412 324.107 199.781 309.18 211.743 311.468L399.667 347.418Z" fill="#E9E9E9"/>
<path d="M666.706 413.486C669.556 413.99 672.128 415.507 673.948 417.757L847.233 632.025C855.579 642.344 843.475 656.573 831.951 649.991L518.165 470.756C516.856 470.008 515.699 469.021 514.756 467.845L458.796 398.085C451.866 389.446 459.339 376.831 470.245 378.759L666.706 413.486Z" fill="#E9E9E9"/>
</g>
</svg>
