<svg width="1110" height="369" viewBox="0 0 1110 369" fill="none" xmlns="http://www.w3.org/2000/svg">
<mask id="mask0_1842_2202" style="mask-type:alpha" maskUnits="userSpaceOnUse" x="0" y="0" width="1110" height="369">
<rect width="1110" height="369" rx="40" transform="matrix(1 0 0 -1 0 369)" fill="#F6F6F6"/>
</mask>
<g mask="url(#mask0_1842_2202)">
<path d="M841.844 -153.427C841.053 -156.42 839.138 -158.991 836.497 -160.604L632.713 -285.078C621.025 -292.217 628.498 -310.217 641.806 -306.978L1264.81 -155.371C1273.4 -153.28 1276.86 -142.934 1271.25 -136.1L964.764 237.469C958.555 245.038 946.384 242.387 943.885 232.922L841.844 -153.427Z" fill="#E9E9E9"/>
<path d="M1102.59 89.7224C1109.68 80.8756 1123.95 85.8895 1123.95 97.2273L1123.95 287.738C1123.95 296.122 1115.57 301.921 1107.72 298.969L990.402 254.836C982.764 251.962 980.16 242.467 985.264 236.099L1102.59 89.7224Z" fill="#E9E9E9"/>
<path d="M678.452 -13.5439L518.644 -157.521C507.974 -167.133 520.135 -183.971 532.615 -176.864L869.791 15.1502C872.642 16.7739 874.704 19.4945 875.497 22.6786L918.216 194.254C921.153 206.052 906.701 214.235 898.095 205.647L678.452 -13.5439Z" fill="#E9E9E9"/>
<path d="M545.463 80.1467C542.716 79.4408 540.308 77.7848 538.666 75.4725L337.504 -207.784C329.725 -218.738 343.073 -232.246 354.119 -224.599L663.254 -10.5787C663.863 -10.1571 664.431 -9.67997 664.952 -9.15348L793.666 120.907C802.233 129.564 793.946 144.002 782.15 140.971L545.463 80.1467Z" fill="#E9E9E9"/>
<path d="M249.709 12.834C246.896 12.1531 244.424 10.4786 242.748 8.11896L39.0274 -278.74C31.343 -289.561 44.3122 -303.006 55.4025 -295.716L436.604 -45.1497C437.863 -44.3217 438.956 -43.2638 439.823 -42.0313L507.101 53.5038C513.478 62.5587 505.231 74.6817 494.467 72.0763L249.709 12.834Z" fill="#E9E9E9"/>
<circle cx="957" cy="108" r="40.5" stroke="#F85C3A" stroke-width="27"/>
<circle cx="788" cy="138" r="14.5" stroke="#2D2D2D" stroke-width="15"/>
<circle cx="921" cy="282" r="18.5" stroke="#2D2D2D" stroke-width="21"/>
</g>
</svg>
