<svg width="1110" height="706" viewBox="0 0 1110 706" fill="none" xmlns="http://www.w3.org/2000/svg">
<path d="M840.615 -204.536C839.825 -207.528 837.909 -210.099 835.268 -211.712L612.276 -347.919C600.587 -355.058 608.061 -373.057 621.369 -369.819L1294.68 -205.971C1303.27 -203.881 1306.72 -193.535 1301.12 -186.7L971.209 215.415C965 222.983 952.829 220.332 950.329 210.868L840.615 -204.536Z" fill="#E9E9E9"/>
<path d="M1121.22 54.1529C1128.31 45.3061 1142.59 50.3201 1142.59 61.6579L1142.59 269.164C1142.59 277.548 1134.21 283.347 1126.36 280.395L998.573 232.324C990.935 229.451 988.331 219.956 993.435 213.588L1121.22 54.1529Z" fill="#E9E9E9"/>
<path d="M665.835 -54.5007L489.021 -213.799C478.351 -223.412 490.511 -240.249 502.991 -233.142L870.924 -23.6129C873.776 -21.9892 875.838 -19.2686 876.631 -16.0845L923.169 170.831C926.107 182.629 911.654 190.813 903.048 182.224L665.835 -54.5007Z" fill="#E9E9E9"/>
<path d="M523.208 45.6927C520.461 44.9868 518.053 43.3308 516.411 41.0185L298.165 -266.294C290.386 -277.248 303.734 -290.756 314.78 -283.109L649.634 -51.2829C650.243 -50.8612 650.811 -50.3841 651.332 -49.8576L791.286 91.561C799.853 100.218 791.566 114.656 779.77 111.624L523.208 45.6927Z" fill="#E9E9E9"/>
<path d="M206.676 -26.3448C203.863 -27.0257 201.391 -28.7002 199.716 -31.0598L-21.0889 -341.975C-28.7733 -352.796 -15.804 -366.241 -4.71381 -358.951L407.136 -88.2384C408.396 -87.4104 409.489 -86.3525 410.356 -85.12L483.741 19.0865C490.117 28.1413 481.87 40.2644 471.106 37.659L206.676 -26.3448Z" fill="#E9E9E9"/>
</svg>
