<svg width="315" height="637" viewBox="0 0 315 637" fill="none" xmlns="http://www.w3.org/2000/svg">
<path d="M306.895 190.068H314.289C314.683 190.068 315 190.385 315 190.777V264.168C315 264.561 314.683 264.877 314.289 264.877H306.895C306.501 264.877 306.184 264.561 306.184 264.168V190.777C306.184 190.384 306.502 190.068 306.895 190.068Z" fill="#3F4B5B"/>
<path d="M0.710932 174.848H8.10471C8.49858 174.848 8.81564 175.164 8.81564 175.557V220.881C8.81564 221.274 8.49844 221.59 8.10471 221.59H0.710932C0.317063 221.59 0 221.274 0 220.881V175.557C0 175.164 0.317195 174.848 0.710932 174.848Z" fill="#3F4B5B"/>
<path d="M0.710932 235.827H8.10471C8.49858 235.827 8.81564 236.143 8.81564 236.536V281.86C8.81564 282.252 8.49844 282.569 8.10471 282.569H0.710932C0.317063 282.569 0 282.252 0 281.86V236.536C0 236.143 0.317195 235.827 0.710932 235.827Z" fill="#3F4B5B"/>
<path d="M8.10473 128.554H0.710941C0.318299 128.554 0 128.872 0 129.263V152.134C0 152.525 0.318299 152.843 0.710941 152.843H8.10473C8.49737 152.843 8.81567 152.525 8.81567 152.134V129.263C8.81567 128.872 8.49737 128.554 8.10473 128.554Z" fill="#3F4B5B"/>
<path d="M306.895 190.99H314.289C314.683 190.99 315 191.306 315 191.699V263.53C315 263.923 314.683 264.239 314.289 264.239H306.895C306.501 264.239 306.184 263.923 306.184 263.53V191.699C306.184 191.306 306.502 190.99 306.895 190.99Z" fill="url(#paint0_linear_85_926)"/>
<path d="M0.789546 175.77H8.18332C8.57719 175.77 8.89425 176.086 8.89425 176.478V220.243C8.89425 220.636 8.57706 220.952 8.18332 220.952H0.789546C0.395676 220.952 0.0786133 220.636 0.0786133 220.243V176.478C0.0786133 176.086 0.395808 175.77 0.789546 175.77Z" fill="url(#paint1_linear_85_926)"/>
<path d="M0.710932 236.749H8.10471C8.49858 236.749 8.81564 237.065 8.81564 237.457V281.222C8.81564 281.615 8.49844 281.931 8.10471 281.931H0.710932C0.317063 281.931 0 281.615 0 281.222V237.457C0 237.065 0.317195 236.749 0.710932 236.749Z" fill="url(#paint2_linear_85_926)"/>
<path d="M8.10473 129.476H0.710941C0.318299 129.476 0 129.793 0 130.185V151.496C0 151.887 0.318299 152.205 0.710941 152.205H8.10473C8.49737 152.205 8.81567 151.887 8.81567 151.496V130.185C8.81567 129.793 8.49737 129.476 8.10473 129.476Z" fill="url(#paint3_linear_85_926)"/>
<path d="M264.228 1.43481H50.8505C24.0139 1.43481 2.25861 23.1245 2.25861 49.8801V587.12C2.25861 613.876 24.0139 635.565 50.8505 635.565H264.228C291.065 635.565 312.82 613.876 312.82 587.12V49.8801C312.82 23.1245 291.065 1.43481 264.228 1.43481Z" fill="#C8E1F8" stroke="#3F4B5B" stroke-width="0.999999" stroke-linecap="round" stroke-linejoin="round"/>
<g filter="url(#filter0_f_85_926)">
<path d="M50.8479 3.13428C24.842 3.13428 3.96069 23.9526 3.96069 49.88V587.122C3.96069 613.049 24.842 633.866 50.8479 633.866H264.231C290.237 633.866 311.118 613.049 311.118 587.122V49.88C311.118 23.9526 290.237 3.13428 264.231 3.13428H50.8479Z" fill="#A0B8CE"/>
</g>
<path d="M245.954 1V11.414H250.294V1H245.954ZM1.82178 64.2646V68.5917H313.257V64.2646H1.82178ZM1.82178 569.512V573.839H313.257V569.512H1.82178ZM64.7849 627.033V636H69.125V627.033H64.7849Z" fill="#819ABB"/>
<path d="M185.991 5.21216H130.755V9.59871H185.991V5.21216Z" fill="black"/>
<path d="M51.6683 5.42993C26.2907 5.42993 5.86078 25.7983 5.86078 51.0992V585.901C5.86078 611.202 26.2907 631.57 51.6683 631.57H263.41C288.788 631.57 309.218 611.202 309.218 585.901V51.0992C309.218 25.7983 288.788 5.42993 263.41 5.42993H185.969C185.488 5.43015 185.022 5.60226 184.657 5.91511C184.291 6.22797 184.05 6.6609 183.977 7.13556V7.22399H183.965H132.781C132.728 6.73123 132.494 6.27555 132.124 5.94443C131.754 5.6133 131.274 5.43008 130.777 5.42993H51.6683Z" fill="black" stroke="#434343" stroke-width="0.500001"/>
<path d="M181.96 5.42969H134.786C133.673 5.42969 132.77 6.32966 132.77 7.43983V9.59355C132.77 10.7037 133.673 11.6037 134.786 11.6037H181.96C183.074 11.6037 183.976 10.7037 183.976 9.59355V7.43983C183.976 6.32966 183.074 5.42969 181.96 5.42969Z" fill="black" stroke="#1A1A1A" stroke-width="0.500001" stroke-linecap="round" stroke-linejoin="round"/>
<path d="M135.987 6.69336C134.974 6.69336 134.158 7.50623 134.158 8.51641C134.158 9.52658 134.974 10.3395 135.987 10.3395H180.76C181.773 10.3395 182.588 9.52658 182.588 8.51641C182.588 7.50623 181.773 6.69336 180.76 6.69336H135.987Z" stroke="#292929" stroke-width="0.153809" stroke-linecap="round"/>
<g filter="url(#filter1_f_85_926)">
<path d="M182.588 8.51657C182.588 8.83759 182.402 9.09784 182.172 9.09784C181.942 9.09784 181.756 8.83759 181.756 8.51657C181.756 8.19554 181.942 7.9353 182.172 7.9353C182.402 7.9353 182.588 8.19554 182.588 8.51657Z" fill="white"/>
<path d="M134.158 8.51657C134.158 8.83759 134.345 9.09783 134.574 9.09783C134.804 9.09783 134.99 8.83759 134.99 8.51657C134.99 8.19555 134.804 7.9353 134.574 7.9353C134.345 7.9353 134.158 8.19554 134.158 8.51657Z" fill="white"/>
</g>
<g clip-path="url(#clip0_85_926)">
<path d="M50.7318 15.8013C32.3601 15.8007 17.4664 30.6486 17.4661 48.9649V588.681C17.4655 606.998 32.3594 621.845 50.7318 621.845H264.916C283.289 621.845 298.183 606.998 298.182 588.681V48.9649C298.182 30.6486 283.288 15.8007 264.916 15.8013H222.257C218.37 15.8013 216.359 16.202 216.359 22.35C216.359 28.498 212.538 38.857 198.864 38.857H116.784C103.11 38.857 99.2888 28.498 99.2888 22.35C99.2888 16.202 97.2782 15.8013 93.3906 15.8013H50.7318Z" fill="#2D2D2D"/>
<path d="M71.8301 334.463C70.8734 334.491 69.9215 334.308 69.0329 333.923C68.1444 333.539 67.338 332.962 66.6633 332.228C65.9887 331.494 65.4601 330.619 65.1102 329.655C64.7602 328.692 64.5963 327.662 64.6284 326.628C64.5969 325.594 64.7613 324.564 65.1116 323.601C65.4618 322.639 65.9904 321.764 66.665 321.03C67.3396 320.297 68.1458 319.72 69.034 319.336C69.9223 318.952 70.8738 318.768 71.8301 318.797C72.8781 318.787 73.9157 319.023 74.8711 319.489C75.7886 319.935 76.5947 320.61 77.2224 321.46C77.8649 322.326 78.314 323.34 78.5346 324.424H76.2147C75.9177 323.462 75.3392 322.631 74.5665 322.056C73.7619 321.474 72.8111 321.175 71.8435 321.199C71.1966 321.179 70.5529 321.305 69.9537 321.569C69.3545 321.834 68.8129 322.23 68.3636 322.734C67.8982 323.25 67.5334 323.862 67.2911 324.533C67.0487 325.204 66.9337 325.922 66.9528 326.642C66.9312 327.355 67.0422 328.065 67.2791 328.73C67.5161 329.396 67.8742 330.003 68.3322 330.516C69.1535 331.382 70.2256 331.914 71.3677 332.025C72.5099 332.135 73.6523 331.816 74.6024 331.122C75.3961 330.506 75.9776 329.621 76.255 328.608H78.5973C78.2944 330.285 77.4518 331.791 76.2191 332.86C74.9741 333.932 73.4213 334.499 71.8301 334.463Z" fill="white"/>
<path d="M81.2172 333.595V317.923H83.8371V333.595H81.2172Z" fill="white"/>
<path d="M96.8693 322.544H98.6833V334.184H96.7888L96.5567 332.76C96.0208 333.319 95.3773 333.759 94.6665 334.052C93.9558 334.345 93.1932 334.485 92.4268 334.464C91.6366 334.486 90.8503 334.343 90.117 334.042C89.3836 333.742 88.7188 333.291 88.1642 332.717C87.6059 332.148 87.1668 331.47 86.8737 330.724C86.5806 329.977 86.4396 329.178 86.4592 328.374C86.4377 327.569 86.5773 326.768 86.8694 326.019C87.1616 325.271 87.6001 324.591 88.1584 324.021C88.7167 323.45 89.383 323.002 90.1168 322.703C90.8506 322.403 91.6365 322.259 92.4268 322.279C93.2012 322.256 93.9718 322.398 94.6894 322.695C95.407 322.993 96.0559 323.439 96.5946 324.007L96.8693 322.544ZM89.9166 331.091C90.2675 331.449 90.6867 331.731 91.1486 331.919C91.6104 332.106 92.105 332.196 92.602 332.181C93.0963 332.197 93.5884 332.108 94.0473 331.92C94.5063 331.733 94.922 331.45 95.2685 331.091C95.6156 330.73 95.8873 330.302 96.0672 329.832C96.2471 329.362 96.3315 328.859 96.3152 328.354C96.3317 327.851 96.2474 327.349 96.0674 326.879C95.8875 326.41 95.6157 325.982 95.2685 325.623C94.919 325.266 94.501 324.986 94.0406 324.801C93.5802 324.616 93.0872 324.529 92.5925 324.547C91.9305 324.536 91.2773 324.703 90.6981 325.03C90.1352 325.35 89.6699 325.823 89.353 326.395C89.031 326.994 88.8677 327.667 88.8794 328.35C88.8587 328.855 88.94 329.358 89.1185 329.83C89.2969 330.301 89.5686 330.73 89.9166 331.091Z" fill="white"/>
<path d="M107.205 322.284H108.29V324.48H106.977C104.884 324.48 103.838 325.518 103.838 327.594V333.595H101.303V322.349H103.002L103.433 323.888C103.869 323.355 104.441 322.93 105.1 322.65C105.758 322.37 106.481 322.244 107.205 322.284Z" fill="white"/>
<path d="M110.036 320.343V317.923H112.656V320.343H110.036ZM110.082 333.595V322.13H112.631V333.595H110.082Z" fill="white"/>
<path d="M120.968 331.479H122.263V333.593H120.52C119.768 333.617 119.022 333.456 118.349 333.124C117.737 332.812 117.238 332.321 116.921 331.718C116.598 331.059 116.442 330.334 116.464 329.604V324.292H114.403V323.851L118.402 319.665H118.806V322.304H122.21V324.292H118.825V329.402C118.807 329.684 118.847 329.967 118.943 330.234C119.038 330.501 119.188 330.745 119.382 330.954C119.598 331.141 119.849 331.283 120.121 331.373C120.394 331.464 120.681 331.499 120.968 331.479Z" fill="white"/>
<path d="M132.818 322.277H135.362L130.054 334.016C129.598 335.169 128.902 336.213 128.013 337.078C127.221 337.688 126.237 337.994 125.239 337.943H124.065V335.807H125.052C125.643 335.857 126.233 335.698 126.719 335.358C127.234 334.826 127.635 334.196 127.898 333.505L128.157 332.969L123.136 322.277H125.723L129.364 330.322L132.818 322.277Z" fill="white"/>
<path d="M148.072 326.511H156.319C156.37 328.629 155.571 330.682 154.093 332.228C153.379 332.963 152.516 333.541 151.558 333.926C150.6 334.311 149.571 334.494 148.536 334.462C147.487 334.493 146.442 334.312 145.467 333.929C144.492 333.546 143.608 332.97 142.871 332.238C142.124 331.5 141.538 330.622 141.148 329.656C140.759 328.69 140.574 327.656 140.605 326.618C140.574 325.585 140.756 324.556 141.141 323.595C141.526 322.633 142.106 321.757 142.846 321.022C143.574 320.292 144.449 319.718 145.415 319.335C146.38 318.952 147.416 318.769 148.457 318.797C150.25 318.765 152.002 319.32 153.437 320.373C154.811 321.341 155.764 322.779 156.107 324.402H153.481C153.161 323.443 152.51 322.622 151.64 322.081C150.72 321.492 149.64 321.187 148.541 321.205C147.578 321.189 146.627 321.425 145.787 321.887C144.98 322.341 144.322 323.013 143.892 323.822C143.424 324.69 143.188 325.66 143.206 326.642C143.177 327.361 143.292 328.079 143.546 328.755C143.801 329.43 144.188 330.05 144.687 330.579C145.186 331.081 145.788 331.475 146.453 331.735C147.118 331.995 147.831 332.115 148.546 332.088C149.692 332.109 150.816 331.781 151.764 331.149C152.657 330.569 153.301 329.688 153.575 328.673H148.072V326.511Z" fill="white"/>
<path d="M158.941 333.595V317.923H160.688V333.595H158.941Z" fill="white"/>
<path d="M173.785 332.737C172.593 333.849 171.035 334.466 169.418 334.466C167.801 334.466 166.243 333.849 165.051 332.737C164.483 332.176 164.034 331.501 163.734 330.754C163.434 330.008 163.29 329.206 163.31 328.4C163.292 327.297 163.565 326.209 164.1 325.249C164.62 324.326 165.382 323.568 166.301 323.062C167.263 322.546 168.334 322.277 169.421 322.277C170.508 322.277 171.578 322.546 172.54 323.062C173.459 323.567 174.22 324.325 174.736 325.249C175.27 326.199 175.545 327.277 175.532 328.371C175.554 329.183 175.411 329.99 175.11 330.741C174.809 331.493 174.358 332.173 173.785 332.737ZM169.421 332.187C170.092 332.2 170.754 332.034 171.342 331.706C171.9 331.39 172.359 330.92 172.668 330.352C172.99 329.747 173.153 329.068 173.141 328.381C173.158 327.876 173.073 327.372 172.894 326.901C172.714 326.43 172.442 326.001 172.095 325.639C171.37 324.949 170.414 324.565 169.421 324.565C168.427 324.565 167.471 324.949 166.746 325.639C166.399 326 166.127 326.428 165.947 326.898C165.767 327.369 165.683 327.872 165.7 328.376C165.683 328.88 165.767 329.382 165.947 329.852C166.127 330.322 166.399 330.749 166.746 331.108C167.095 331.466 167.512 331.746 167.973 331.932C168.433 332.118 168.926 332.205 169.421 332.187Z" fill="white"/>
<path d="M184.347 321.934C185.148 321.909 185.945 322.054 186.688 322.362C187.432 322.669 188.106 323.132 188.668 323.721C189.232 324.312 189.674 325.014 189.968 325.786C190.262 326.558 190.401 327.384 190.378 328.214C190.399 329.039 190.259 329.859 189.966 330.627C189.673 331.395 189.233 332.093 188.673 332.681C188.11 333.269 187.435 333.73 186.692 334.037C185.949 334.343 185.152 334.489 184.352 334.463C183.599 334.482 182.85 334.347 182.147 334.066C181.444 333.785 180.802 333.363 180.257 332.825L179.959 334.175H178.154V317.923H180.554V323.334C181.615 322.411 182.961 321.914 184.347 321.934ZM181.443 331.008C182.171 331.732 183.141 332.135 184.151 332.135C185.16 332.135 186.13 331.732 186.858 331.008C187.212 330.641 187.49 330.203 187.675 329.72C187.86 329.238 187.948 328.722 187.934 328.204C187.948 327.685 187.86 327.169 187.675 326.687C187.49 326.205 187.212 325.767 186.858 325.399C186.504 325.029 186.079 324.739 185.61 324.547C185.142 324.356 184.64 324.267 184.136 324.287C183.465 324.276 182.803 324.447 182.216 324.784C181.645 325.114 181.173 325.6 180.852 326.188C180.526 326.804 180.36 327.497 180.372 328.199C180.357 328.718 180.444 329.234 180.628 329.717C180.812 330.2 181.089 330.639 181.443 331.008Z" fill="white"/>
<path d="M202.53 322.544H204.353V334.184H202.459L202.222 332.76C201.687 333.319 201.044 333.759 200.334 334.052C199.624 334.346 198.862 334.486 198.097 334.464C197.306 334.486 196.52 334.343 195.787 334.042C195.053 333.742 194.389 333.291 193.834 332.717C193.276 332.148 192.837 331.47 192.543 330.724C192.25 329.977 192.109 329.178 192.129 328.374C192.107 327.569 192.247 326.768 192.539 326.019C192.831 325.271 193.27 324.591 193.828 324.021C194.386 323.45 195.053 323.002 195.787 322.703C196.52 322.403 197.306 322.259 198.097 322.279C198.871 322.256 199.641 322.398 200.359 322.695C201.077 322.993 201.726 323.439 202.264 324.007L202.53 322.544ZM195.582 331.091C195.932 331.449 196.352 331.731 196.814 331.919C197.275 332.106 197.77 332.196 198.267 332.181C198.761 332.197 199.253 332.108 199.712 331.92C200.171 331.733 200.587 331.45 200.933 331.091C201.281 330.73 201.552 330.302 201.732 329.832C201.912 329.362 201.996 328.859 201.98 328.354C201.997 327.851 201.912 327.349 201.732 326.879C201.552 326.41 201.281 325.982 200.933 325.623C200.584 325.266 200.166 324.986 199.706 324.801C199.245 324.616 198.752 324.529 198.258 324.547C197.596 324.536 196.942 324.703 196.363 325.03C195.799 325.349 195.334 325.822 195.018 326.395C194.693 326.993 194.53 327.667 194.544 328.35C194.524 328.855 194.605 329.358 194.783 329.83C194.962 330.301 195.234 330.73 195.582 331.091Z" fill="white"/>
<path d="M207.846 333.595V317.923H209.593V333.595H207.846Z" fill="white"/>
<path d="M220.073 333.595V317.923H222.692V333.595H220.073Z" fill="white"/>
<path d="M232.289 322.28C232.887 322.255 233.483 322.358 234.034 322.581C234.585 322.804 235.078 323.141 235.477 323.57C236.291 324.506 236.713 325.7 236.661 326.919V333.595H234.275V327.378C234.343 326.565 234.117 325.755 233.635 325.084C233.393 324.814 233.089 324.602 232.747 324.465C232.405 324.328 232.034 324.27 231.664 324.295C231.245 324.286 230.829 324.367 230.445 324.53C230.062 324.693 229.72 324.936 229.445 325.24C228.847 325.911 228.535 326.775 228.572 327.658V333.595H226.186V322.528H227.827L228.305 324.065C228.748 323.5 229.33 323.049 229.999 322.753C230.716 322.432 231.499 322.27 232.289 322.28Z" fill="white"/>
<path d="M244.669 334.465C243.843 334.478 243.023 334.33 242.257 334.028C241.491 333.726 240.795 333.277 240.211 332.707C239.627 332.137 239.167 331.459 238.858 330.712C238.55 329.965 238.398 329.166 238.414 328.361C238.393 327.556 238.542 326.756 238.852 326.009C239.162 325.263 239.626 324.586 240.215 324.022C241.312 323.001 242.742 322.388 244.255 322.29C245.769 322.193 247.27 322.616 248.495 323.487C249.565 324.276 250.311 325.411 250.599 326.688H248.164C247.87 326.044 247.386 325.5 246.773 325.126C246.142 324.745 245.412 324.548 244.669 324.557C244.004 324.552 243.35 324.722 242.776 325.05C242.202 325.378 241.729 325.85 241.408 326.418C241.073 327.017 240.903 327.689 240.913 328.371C240.9 328.87 240.989 329.368 241.175 329.834C241.361 330.3 241.641 330.725 241.997 331.085C242.338 331.441 242.752 331.722 243.213 331.912C243.673 332.101 244.17 332.194 244.669 332.184C245.417 332.2 246.151 331.994 246.775 331.594C247.399 331.193 247.883 330.617 248.164 329.942H250.638C250.339 331.246 249.583 332.407 248.5 333.226C247.408 334.056 246.055 334.494 244.669 334.465Z" fill="white"/>
<path d="M153.566 230.856C149.502 230.852 145.476 231.674 141.726 233.274C137.976 234.875 134.575 237.222 131.722 240.178C136.346 236.566 141.876 234.755 148.31 234.745C152.231 234.707 156.112 235.542 159.685 237.192C163.119 238.774 166.138 241.162 168.496 244.163C170.898 247.221 172.578 250.803 173.405 254.631H164.717C163.593 251.225 161.412 248.287 158.504 246.262C155.507 244.223 151.969 243.171 148.368 243.246C145.945 243.173 143.534 243.617 141.289 244.552C139.045 245.486 137.017 246.89 135.335 248.672C131.86 252.28 130.122 256.871 130.122 262.444C130.122 268.018 131.843 272.604 135.285 276.202C136.974 277.972 139.004 279.365 141.247 280.292C143.49 281.22 145.898 281.662 148.317 281.591C152.037 281.672 155.684 280.532 158.722 278.338C161.674 276.159 163.832 273.038 164.854 269.467H173.601C172.454 275.378 169.3 280.685 164.695 284.452C160.044 288.221 154.247 290.209 148.31 290.07C143.063 290.183 137.898 288.726 133.453 285.879C137.197 289.195 141.672 291.535 146.495 292.701C151.318 293.867 156.346 293.824 161.149 292.574C165.952 291.324 170.387 288.905 174.076 285.525C177.764 282.144 180.596 277.902 182.329 273.161C184.062 268.42 184.645 263.32 184.028 258.299C183.411 253.278 181.613 248.484 178.786 244.327C175.96 240.169 172.19 236.773 167.798 234.427C163.406 232.081 158.523 230.856 153.566 230.856Z" fill="white"/>
</g>
<path d="M93.4435 15.8013C97.3311 15.8013 99.3417 16.202 99.3417 22.35C99.3417 28.498 103.163 38.857 116.837 38.857H198.917C212.591 38.857 216.412 28.498 216.412 22.35C216.412 16.202 218.423 15.8013 222.31 15.8013H93.4435Z" fill="black"/>
<path d="M117.4 28.8438C120.158 28.8438 122.393 26.6148 122.393 23.8653C122.393 21.1157 120.158 18.8867 117.4 18.8867C114.642 18.8867 112.406 21.1157 112.406 23.8653C112.406 26.6148 114.642 28.8438 117.4 28.8438Z" fill="#161616"/>
<path d="M117.4 26.9361C119.101 26.9361 120.48 25.5612 120.48 23.8653C120.48 22.1693 119.101 20.7944 117.4 20.7944C115.698 20.7944 114.319 22.1693 114.319 23.8653C114.319 25.5612 115.698 26.9361 117.4 26.9361Z" fill="#0A0D13"/>
<path d="M117.4 26.2051C118.696 26.2051 119.746 25.1576 119.746 23.8654C119.746 22.5732 118.696 21.5256 117.4 21.5256C116.103 21.5256 115.053 22.5732 115.053 23.8654C115.053 25.1576 116.103 26.2051 117.4 26.2051Z" fill="#091427"/>
<g filter="url(#filter2_f_85_926)">
<path fill-rule="evenodd" clip-rule="evenodd" d="M115.784 22.2998C115.506 22.329 115.11 22.7525 115.081 23.5848C115.052 24.4172 115.418 24.8699 115.623 24.8699C115.828 24.8699 116.678 23.6579 115.784 22.2998H115.784Z" fill="#235A91" fill-opacity="0.556075"/>
</g>
<g filter="url(#filter3_f_85_926)">
<path fill-rule="evenodd" clip-rule="evenodd" d="M117.783 22.0085C117.344 22.1432 117.259 22.8501 117.276 23.2541C117.293 23.6581 117.867 24.7185 118.559 24.4829C119.252 24.2472 119.37 23.3719 119.083 22.7828C118.796 22.1936 118.272 21.7728 117.783 22.0085Z" fill="#235A91" fill-opacity="0.556075"/>
</g>
<defs>
<filter id="filter0_f_85_926" x="2.02364" y="1.19722" width="311.031" height="634.606" filterUnits="userSpaceOnUse" color-interpolation-filters="sRGB">
<feFlood flood-opacity="0" result="BackgroundImageFix"/>
<feBlend mode="normal" in="SourceGraphic" in2="BackgroundImageFix" result="shape"/>
<feGaussianBlur stdDeviation="0.968526" result="effect1_foregroundBlur_85_926"/>
</filter>
<filter id="filter1_f_85_926" x="130.648" y="4.4247" width="55.4512" height="8.1838" filterUnits="userSpaceOnUse" color-interpolation-filters="sRGB">
<feFlood flood-opacity="0" result="BackgroundImageFix"/>
<feBlend mode="normal" in="SourceGraphic" in2="BackgroundImageFix" result="shape"/>
<feGaussianBlur stdDeviation="1.7553" result="effect1_foregroundBlur_85_926"/>
</filter>
<filter id="filter2_f_85_926" x="114.877" y="22.097" width="1.51129" height="2.97577" filterUnits="userSpaceOnUse" color-interpolation-filters="sRGB">
<feFlood flood-opacity="0" result="BackgroundImageFix"/>
<feBlend mode="normal" in="SourceGraphic" in2="BackgroundImageFix" result="shape"/>
<feGaussianBlur stdDeviation="0.101426" result="effect1_foregroundBlur_85_926"/>
</filter>
<filter id="filter3_f_85_926" x="117.071" y="21.739" width="2.35993" height="2.98041" filterUnits="userSpaceOnUse" color-interpolation-filters="sRGB">
<feFlood flood-opacity="0" result="BackgroundImageFix"/>
<feBlend mode="normal" in="SourceGraphic" in2="BackgroundImageFix" result="shape"/>
<feGaussianBlur stdDeviation="0.101426" result="effect1_foregroundBlur_85_926"/>
</filter>
<linearGradient id="paint0_linear_85_926" x1="315" y1="190.99" x2="315" y2="264.272" gradientUnits="userSpaceOnUse">
<stop stop-color="#81AACE"/>
<stop offset="0.1" stop-color="#B9D2E8"/>
<stop offset="0.9" stop-color="#B9D2E8"/>
<stop offset="1" stop-color="#81AACE"/>
</linearGradient>
<linearGradient id="paint1_linear_85_926" x1="8.89426" y1="175.77" x2="8.89426" y2="220.952" gradientUnits="userSpaceOnUse">
<stop stop-color="#81AACE"/>
<stop offset="0.1" stop-color="#B9D2E8"/>
<stop offset="0.9" stop-color="#B9D2E8"/>
<stop offset="1" stop-color="#81AACE"/>
</linearGradient>
<linearGradient id="paint2_linear_85_926" x1="8.81565" y1="236.749" x2="8.81565" y2="281.931" gradientUnits="userSpaceOnUse">
<stop stop-color="#81AACE"/>
<stop offset="0.1" stop-color="#B9D2E8"/>
<stop offset="0.9" stop-color="#B9D2E8"/>
<stop offset="1" stop-color="#81AACE"/>
</linearGradient>
<linearGradient id="paint3_linear_85_926" x1="8.81566" y1="129.476" x2="8.81566" y2="152.205" gradientUnits="userSpaceOnUse">
<stop stop-color="#81AACE"/>
<stop offset="0.1" stop-color="#B9D2E8"/>
<stop offset="0.9" stop-color="#B9D2E8"/>
<stop offset="1" stop-color="#81AACE"/>
</linearGradient>
<clipPath id="clip0_85_926">
<rect x="17.4661" y="15.8013" width="280.716" height="606.043" rx="38" fill="white"/>
</clipPath>
</defs>
</svg>
