<svg width="2202" height="462" viewBox="0 0 2202 462" fill="none" xmlns="http://www.w3.org/2000/svg">
<g clip-path="url(#clip0_301_125)">
<path d="M625.236 300.135C613.811 300.454 602.442 298.387 591.829 294.063C581.217 289.739 571.586 283.248 563.529 274.991C555.471 266.733 549.159 256.883 544.979 246.048C540.8 235.212 538.841 223.62 539.225 211.985C538.849 200.354 540.812 188.767 544.995 177.938C549.178 167.108 555.493 157.266 563.549 149.014C571.605 140.762 581.233 134.277 591.843 129.955C602.451 125.635 613.815 123.571 625.236 123.889C637.753 123.778 650.145 126.436 661.555 131.679C672.514 136.691 682.142 144.293 689.637 153.853C697.311 163.591 702.674 175.001 705.31 187.195H677.602C674.056 176.373 667.146 167.021 657.918 160.554C648.308 154.011 636.953 150.644 625.397 150.912C617.67 150.685 609.983 152.104 602.826 155.078C595.669 158.052 589.201 162.515 583.835 168.181C578.276 173.985 573.921 180.869 571.026 188.422C568.131 195.974 566.757 204.044 566.986 212.148C566.728 220.167 568.054 228.155 570.884 235.643C573.713 243.129 577.991 249.961 583.461 255.733C593.27 265.468 606.073 271.461 619.715 272.701C633.356 273.942 646.999 270.354 658.346 262.543C667.827 255.612 674.771 245.664 678.084 234.268H706.059C702.441 253.131 692.378 270.079 677.656 282.101C662.785 294.162 644.24 300.541 625.236 300.135Z" fill="#2D2D2D"/>
<path d="M732.804 297.196V118.552H759.548V297.196H732.804Z" fill="#2D2D2D"/>
<path d="M904.881 165.787H925.366V297.195H903.971L901.35 281.124C895.297 287.432 888.03 292.397 880.003 295.706C871.976 299.016 863.363 300.599 854.707 300.355C845.783 300.612 836.903 298.993 828.62 295.6C820.339 292.207 812.831 287.112 806.567 280.633C800.262 274.217 795.303 266.561 791.992 258.132C788.682 249.703 787.09 240.676 787.31 231.601C787.068 222.511 788.645 213.466 791.944 205.017C795.243 196.568 800.196 188.891 806.501 182.454C812.807 176.016 820.331 170.953 828.619 167.573C836.906 164.193 845.782 162.566 854.707 162.79C863.453 162.532 872.156 164.132 880.261 167.49C888.365 170.849 895.694 175.891 901.778 182.295L904.881 165.787ZM826.358 262.273C830.321 266.326 835.056 269.508 840.272 271.625C845.488 273.743 851.074 274.75 856.686 274.586C862.269 274.763 867.827 273.761 873.01 271.641C878.193 269.522 882.888 266.332 886.801 262.273C890.721 258.207 893.79 253.372 895.822 248.062C897.854 242.752 898.807 237.078 898.622 231.382C898.809 225.694 897.856 220.027 895.824 214.726C893.792 209.425 890.722 204.6 886.801 200.546C882.854 196.513 878.133 193.353 872.934 191.262C867.733 189.172 862.166 188.196 856.58 188.396C849.103 188.277 841.726 190.156 835.183 193.845C828.827 197.467 823.572 202.801 819.993 209.262C816.356 216.019 814.512 223.624 814.643 231.328C814.41 237.029 815.329 242.716 817.344 248.04C819.359 253.364 822.427 258.208 826.358 262.273Z" fill="#2D2D2D"/>
<path d="M1025.07 165.024H1036.52V190.685H1022.66C1000.59 190.685 989.553 202.816 989.553 227.078V297.195H962.808V165.786H980.727L985.274 183.765C989.875 177.54 995.916 172.572 1002.86 169.302C1009.8 166.031 1017.43 164.562 1025.07 165.024Z" fill="#2D2D2D"/>
<path d="M1056.84 145.302V117.571H1084.33V145.302H1056.84ZM1057.32 297.195V165.787H1084.07V297.195H1057.32Z" fill="#2D2D2D"/>
<path d="M1179.23 272.404H1193.78V296.976H1174.2C1165.75 297.259 1157.37 295.386 1149.81 291.527C1142.93 287.901 1137.32 282.191 1133.76 275.184C1130.14 267.532 1128.37 259.104 1128.63 250.612V188.885H1105.46V183.764L1150.4 135.112H1154.94V165.785H1193.19V188.885H1155.16V248.27C1154.95 251.55 1155.4 254.839 1156.47 257.938C1157.55 261.037 1159.24 263.883 1161.41 266.303C1163.84 268.474 1166.66 270.132 1169.72 271.18C1172.78 272.228 1176.01 272.644 1179.23 272.404Z" fill="#2D2D2D"/>
<path d="M1311.61 165.785H1340.01L1280.75 299.645C1275.66 312.795 1267.9 324.696 1257.96 334.567C1249.13 341.516 1238.14 345.013 1226.99 344.428H1213.89V320.076H1224.91C1231.51 320.636 1238.09 318.824 1243.52 314.955C1249.27 308.89 1253.75 301.697 1256.67 293.816L1259.57 287.714L1203.51 165.785H1232.39L1273.05 257.531L1311.61 165.785Z" fill="#2D2D2D"/>
<path d="M1487.7 210.789H1577.08C1577.63 234.646 1568.97 257.77 1552.95 275.186C1545.22 283.46 1535.86 289.978 1525.47 294.316C1515.09 298.653 1503.93 300.711 1492.72 300.356C1481.35 300.706 1470.02 298.659 1459.46 294.347C1448.89 290.035 1439.31 283.549 1431.32 275.294C1423.22 266.991 1416.88 257.096 1412.66 246.213C1408.44 235.329 1406.43 223.685 1406.77 211.988C1406.42 200.355 1408.4 188.77 1412.57 177.936C1416.74 167.102 1423.03 157.242 1431.06 148.953C1438.95 140.734 1448.43 134.265 1458.89 129.952C1469.35 125.64 1480.59 123.577 1491.87 123.892C1511.3 123.533 1530.29 129.782 1545.85 141.652C1560.73 152.549 1571.06 168.747 1574.78 187.035H1546.32C1542.85 176.225 1535.79 166.981 1526.37 160.885C1516.4 154.25 1504.69 150.815 1492.78 151.024C1482.34 150.841 1472.03 153.492 1462.94 158.705C1454.18 163.819 1447.05 171.381 1442.39 180.497C1437.32 190.274 1434.76 201.203 1434.96 212.26C1434.64 220.364 1435.89 228.452 1438.64 236.061C1441.39 243.671 1445.59 250.653 1451 256.608C1456.42 262.265 1462.95 266.702 1470.14 269.63C1477.35 272.558 1485.08 273.913 1492.83 273.606C1505.25 273.844 1517.44 270.151 1527.7 263.036C1537.38 256.501 1544.37 246.576 1547.33 235.143H1487.7V210.789Z" fill="#2D2D2D"/>
<path d="M1605.81 297.196V118.552H1632.55V297.196H1605.81Z" fill="#2D2D2D"/>
<path d="M1778.9 280.796C1765.42 293.373 1747.83 300.35 1729.55 300.35C1711.28 300.35 1693.68 293.373 1680.21 280.796C1673.78 274.453 1668.71 266.82 1665.32 258.381C1661.93 249.942 1660.3 240.879 1660.52 231.764C1660.33 219.288 1663.41 206.984 1669.46 196.133C1675.33 185.692 1683.94 177.127 1694.33 171.399C1705.2 165.569 1717.29 162.521 1729.58 162.521C1741.86 162.521 1753.96 165.569 1764.83 171.399C1775.21 177.113 1783.81 185.684 1789.65 196.133C1795.68 206.874 1798.78 219.063 1798.63 231.437C1798.89 240.61 1797.26 249.737 1793.87 258.235C1790.47 266.734 1785.37 274.418 1778.9 280.796ZM1729.58 274.586C1737.16 274.732 1744.64 272.854 1751.3 269.138C1757.59 265.564 1762.79 260.26 1766.27 253.829C1769.91 246.993 1771.75 239.319 1771.62 231.546C1771.81 225.834 1770.86 220.142 1768.82 214.815C1766.79 209.486 1763.72 204.633 1759.8 200.546C1751.6 192.737 1740.8 188.392 1729.58 188.392C1718.36 188.392 1707.55 192.737 1699.35 200.546C1695.43 204.619 1692.36 209.463 1690.33 214.782C1688.3 220.102 1687.34 225.787 1687.54 231.492C1687.34 237.189 1688.29 242.865 1690.32 248.177C1692.35 253.488 1695.43 258.322 1699.35 262.382C1703.3 266.427 1708.02 269.6 1713.21 271.7C1718.42 273.8 1723.99 274.782 1729.58 274.586Z" fill="#2D2D2D"/>
<path d="M1895.87 162.573C1904.8 162.292 1913.68 163.89 1921.95 167.264C1930.24 170.639 1937.75 175.719 1944.02 182.186C1950.3 188.666 1955.23 196.377 1958.49 204.851C1961.77 213.326 1963.32 222.388 1963.06 231.492C1963.29 240.545 1961.73 249.554 1958.47 257.979C1955.21 266.405 1950.31 274.073 1944.07 280.524C1937.8 286.974 1930.28 292.038 1921.99 295.404C1913.72 298.768 1904.85 300.362 1895.93 300.083C1887.54 300.288 1879.19 298.805 1871.36 295.72C1863.53 292.635 1856.37 288.009 1850.31 282.104L1846.99 296.923H1826.88V118.552H1853.62V177.937C1865.43 167.805 1880.43 162.35 1895.87 162.573ZM1863.52 262.164C1871.62 270.102 1882.43 274.535 1893.69 274.535C1904.93 274.535 1915.74 270.102 1923.85 262.164C1927.79 258.13 1930.9 253.321 1932.95 248.028C1935.01 242.737 1935.99 237.073 1935.83 231.383C1935.99 225.692 1935.01 220.029 1932.95 214.737C1930.9 209.445 1927.79 204.635 1923.85 200.6C1919.9 196.537 1915.17 193.353 1909.95 191.252C1904.72 189.151 1899.13 188.179 1893.52 188.397C1886.05 188.278 1878.66 190.156 1872.12 193.845C1865.77 197.467 1860.51 202.802 1856.94 209.263C1853.3 216.019 1851.46 223.624 1851.59 231.328C1851.43 237.023 1852.39 242.693 1854.44 247.993C1856.5 253.294 1859.58 258.115 1863.52 262.164Z" fill="#2D2D2D"/>
<path d="M2099.24 165.787H2119.84V297.195H2098.44L2095.77 281.124C2089.73 287.435 2082.47 292.403 2074.45 295.714C2066.44 299.024 2057.83 300.604 2049.18 300.355C2040.25 300.612 2031.37 298.993 2023.09 295.6C2014.81 292.207 2007.31 287.112 2001.03 280.633C1994.73 274.217 1989.77 266.561 1986.46 258.132C1983.16 249.703 1981.55 240.676 1981.78 231.601C1981.53 222.511 1983.12 213.466 1986.41 205.017C1989.72 196.568 1994.67 188.891 2000.97 182.454C2007.27 176.016 2014.8 170.953 2023.09 167.573C2031.37 164.193 2040.25 162.566 2049.18 162.79C2057.92 162.532 2066.63 164.132 2074.73 167.49C2082.83 170.849 2090.16 175.891 2096.25 182.295L2099.24 165.787ZM2020.78 262.273C2024.74 266.326 2029.47 269.508 2034.69 271.625C2039.9 273.743 2045.49 274.75 2051.11 274.586C2056.68 274.763 2062.25 273.761 2067.42 271.641C2072.61 269.522 2077.31 266.332 2081.22 262.273C2085.13 258.207 2088.2 253.372 2090.24 248.062C2092.27 242.752 2093.22 237.078 2093.04 231.382C2093.22 225.694 2092.27 220.027 2090.24 214.726C2088.21 209.425 2085.14 204.6 2081.22 200.546C2077.27 196.513 2072.56 193.353 2067.35 191.262C2062.15 189.172 2056.58 188.196 2050.99 188.396C2043.52 188.277 2036.15 190.156 2029.6 193.845C2023.23 197.454 2017.97 202.79 2014.41 209.262C2010.75 216.007 2008.9 223.62 2009.06 231.328C2008.83 237.029 2009.75 242.716 2011.76 248.04C2013.77 253.364 2016.84 258.208 2020.78 262.273Z" fill="#2D2D2D"/>
<path d="M2157.6 297.196V118.553H2184.08V297.196H2157.6Z" fill="#2D2D2D"/>
<path d="M173.198 0.000152981C143.168 -0.0350968 113.433 6.02167 85.7252 17.817C58.018 29.6124 32.8946 46.91 11.8211 68.7008C45.983 42.0777 86.831 28.7298 134.365 28.6572C163.329 28.3808 192.004 34.5345 218.397 46.6904C243.77 58.3484 266.075 75.9528 283.493 98.0662C301.238 120.604 313.647 147.001 319.759 175.211H255.572C247.272 150.114 231.159 128.461 209.679 113.539C187.532 98.5117 161.398 90.7543 134.793 91.3105C116.894 90.7677 99.0813 94.0451 82.4998 100.932C65.9183 107.818 50.9349 118.163 38.5124 131.299C12.8375 157.886 0 191.719 0 232.798C0 273.877 12.7126 307.674 38.1379 334.187C50.6156 347.231 65.6151 357.497 82.1879 364.333C98.7606 371.169 116.546 374.428 134.418 373.904C161.899 374.501 188.842 366.098 211.282 349.932C233.096 333.871 249.036 310.869 256.589 284.555H321.204C312.735 328.113 289.434 367.224 255.412 394.988C221.05 422.767 178.223 437.415 134.365 436.394C95.6029 437.227 57.4484 426.489 24.6051 405.504C52.2665 429.94 85.326 447.193 120.958 455.786C156.59 464.379 193.735 464.055 229.218 454.845C264.701 445.635 297.466 427.81 324.714 402.896C351.963 377.981 372.883 346.717 385.686 311.775C398.491 276.833 402.798 239.253 398.24 202.247C393.682 165.242 380.395 129.91 359.514 99.2724C338.634 68.6348 310.78 43.6024 278.334 26.3148C245.889 9.02719 209.815 -0.00159951 173.198 0.000152981Z" fill="#2D2D2D"/>
</g>
<defs>
<clipPath id="clip0_301_125">
<rect width="2202" height="462" fill="white"/>
</clipPath>
</defs>
</svg>
