<svg width="189" height="37" viewBox="0 0 189 37" fill="none" xmlns="http://www.w3.org/2000/svg">
<g id="&#208;&#161;&#208;&#187;&#208;&#190;&#208;&#185; 1">
<path id="Vector" d="M44.6563 23.9938C43.8402 24.0185 43.0282 23.8581 42.2703 23.5224C41.5123 23.1867 40.8244 22.6828 40.249 22.0417C39.6735 21.4007 39.2226 20.636 38.9241 19.7948C38.6256 18.9536 38.4857 18.0536 38.5131 17.1503C38.4863 16.2474 38.6265 15.3479 38.9253 14.5072C39.224 13.6664 39.675 12.9023 40.2504 12.2617C40.8258 11.6211 41.5135 11.1175 42.2712 10.7821C43.0289 10.4466 43.8406 10.2864 44.6563 10.3111C45.5503 10.3025 46.4354 10.5089 47.2503 10.9159C48.0331 11.305 48.7206 11.8951 49.256 12.6373C49.8041 13.3933 50.1872 14.2791 50.3754 15.2259H48.3965C48.1432 14.3857 47.6497 13.6596 46.9906 13.1576C46.3042 12.6496 45.4931 12.3882 44.6678 12.4089C44.1159 12.3914 43.5669 12.5015 43.0557 12.7324C42.5446 12.9633 42.0826 13.3098 41.6993 13.7497C41.3023 14.2003 40.9912 14.7347 40.7844 15.321C40.5777 15.9074 40.4796 16.5338 40.4959 17.163C40.4775 17.7855 40.5722 18.4057 40.7743 18.987C40.9764 19.5682 41.2819 20.0986 41.6726 20.5467C42.3732 21.3024 43.2877 21.7677 44.2619 21.864C45.2362 21.9603 46.2107 21.6818 47.0211 21.0754C47.6982 20.5373 48.1942 19.765 48.4308 18.8802H50.4289C50.1705 20.3447 49.4518 21.6604 48.4003 22.5938C47.3382 23.53 46.0137 24.0253 44.6563 23.9938Z" fill="white"/>
<path id="Vector_2" d="M52.3389 23.7655V9.89673H54.2491V23.7655H52.3389Z" fill="white"/>
<path id="Vector_3" d="M64.6294 13.5638H66.0926V23.7656H64.5644L64.3772 22.5179C63.945 23.0076 63.4259 23.393 62.8525 23.65C62.2792 23.9069 61.6641 24.0298 61.0459 24.0109C60.4085 24.0308 59.7743 23.9052 59.1827 23.6417C58.5911 23.3783 58.0549 22.9828 57.6075 22.4798C57.1572 21.9817 56.803 21.3873 56.5666 20.7329C56.3301 20.0785 56.2164 19.3778 56.2322 18.6732C56.2149 17.9675 56.3275 17.2653 56.5631 16.6094C56.7988 15.9535 57.1525 15.3575 57.6028 14.8577C58.0532 14.358 58.5907 13.9649 59.1826 13.7025C59.7745 13.4401 60.4085 13.3137 61.0459 13.3312C61.6705 13.3111 62.2921 13.4354 62.871 13.6961C63.4498 13.9568 63.9732 14.3482 64.4078 14.8454L64.6294 13.5638ZM59.0211 21.0544C59.3041 21.369 59.6423 21.6161 60.0148 21.7805C60.3874 21.9449 60.7864 22.0231 61.1872 22.0103C61.5859 22.0241 61.9829 21.9462 62.3531 21.7817C62.7233 21.6172 63.0586 21.3696 63.3381 21.0544C63.6181 20.7387 63.8373 20.3634 63.9824 19.9512C64.1275 19.539 64.1956 19.0984 64.1824 18.6563C64.1957 18.2147 64.1277 17.7747 63.9826 17.3632C63.8374 16.9516 63.6181 16.5771 63.3381 16.2623C63.0562 15.9492 62.7191 15.7039 62.3477 15.5416C61.9763 15.3793 61.5786 15.3036 61.1796 15.3191C60.6456 15.3099 60.1187 15.4557 59.6514 15.7421C59.1974 16.0233 58.8221 16.4374 58.5665 16.939C58.3067 17.4635 58.175 18.054 58.1844 18.652C58.1677 19.0946 58.2334 19.5362 58.3773 19.9495C58.5212 20.3627 58.7403 20.7388 59.0211 21.0544Z" fill="white"/>
<path id="Vector_4" d="M73.2135 13.5045H74.0311V15.4966H73.0416C71.4651 15.4966 70.6768 16.4384 70.6768 18.322V23.7655H68.7666V13.5637H70.0464L70.3712 14.9595C70.6998 14.4762 71.1313 14.0905 71.6272 13.8366C72.1232 13.5828 72.6681 13.4687 73.2135 13.5045Z" fill="white"/>
<path id="Vector_5" d="M75.4834 11.9734V9.82056H77.4471V11.9734H75.4834ZM75.5178 23.7655V13.5637H77.428V23.7655H75.5178Z" fill="white"/>
<path id="Vector_6" d="M84.2244 21.8412H85.2635V23.7487H83.8652C83.2618 23.7707 82.6629 23.6253 82.1232 23.3257C81.6318 23.0442 81.2313 22.6009 80.977 22.0569C80.7181 21.4629 80.5923 20.8086 80.6103 20.1493V15.3572H78.9561V14.9596L82.1652 11.1826H82.4899V13.5639H85.2215V15.3572H82.5052V19.9675C82.4905 20.2221 82.5225 20.4775 82.5993 20.7181C82.6762 20.9587 82.7962 21.1796 82.9522 21.3675C83.1252 21.536 83.3268 21.6647 83.5452 21.7461C83.7636 21.8274 83.9945 21.8597 84.2244 21.8412Z" fill="white"/>
<path id="Vector_7" d="M93.679 13.5637H95.7076L91.4746 23.9558C91.1111 24.9766 90.5565 25.9006 89.8472 26.667C89.216 27.2064 88.4314 27.4779 87.6352 27.4325H86.6992V25.5419H87.4862C87.9577 25.5854 88.4281 25.4447 88.8156 25.1443C89.2262 24.6735 89.5459 24.1152 89.7555 23.5032L89.9618 23.0295L85.958 13.5637H88.021L90.9245 20.6863L93.679 13.5637Z" fill="white"/>
<path id="Vector_8" d="M106.256 17.0575H112.64C112.679 18.9095 112.06 20.7048 110.917 22.0568C110.364 22.6992 109.695 23.2052 108.954 23.5419C108.213 23.8786 107.416 24.0384 106.615 24.0109C105.802 24.038 104.993 23.8792 104.239 23.5444C103.484 23.2096 102.8 22.7061 102.229 22.0653C101.651 21.4206 101.197 20.6525 100.896 19.8075C100.594 18.9626 100.451 18.0586 100.475 17.1505C100.451 16.2474 100.592 15.3481 100.89 14.5069C101.188 13.6658 101.637 12.9004 102.21 12.2569C102.774 11.6188 103.451 11.1166 104.198 10.7818C104.946 10.447 105.748 10.2868 106.554 10.3113C107.941 10.2834 109.298 10.7686 110.408 11.6901C111.472 12.5361 112.21 13.7936 112.475 15.2134H110.443C110.195 14.3741 109.691 13.6564 109.018 13.1832C108.305 12.6681 107.469 12.4015 106.619 12.4176C105.873 12.4034 105.137 12.6093 104.487 13.014C103.862 13.4109 103.353 13.9981 103.02 14.7058C102.657 15.4648 102.475 16.3132 102.489 17.1717C102.466 17.8008 102.555 18.4287 102.752 19.0195C102.949 19.6102 103.249 20.1523 103.635 20.6145C104.022 21.0538 104.487 21.3982 105.002 21.6255C105.517 21.8528 106.069 21.958 106.622 21.9342C107.509 21.9526 108.38 21.6659 109.113 21.1136C109.804 20.6063 110.303 19.8357 110.515 18.9481H106.256V17.0575Z" fill="white"/>
<path id="Vector_9" d="M114.691 23.7655V9.89673H116.602V23.7655H114.691Z" fill="white"/>
<path id="Vector_10" d="M127.055 22.4925C126.093 23.4689 124.835 24.0106 123.53 24.0106C122.225 24.0106 120.968 23.4689 120.006 22.4925C119.547 22 119.185 21.4075 118.943 20.7523C118.701 20.0971 118.584 19.3935 118.6 18.6859C118.586 17.7173 118.806 16.7622 119.238 15.9198C119.657 15.1092 120.273 14.4442 121.015 13.9995C121.791 13.5469 122.655 13.3103 123.532 13.3103C124.409 13.3103 125.274 13.5469 126.05 13.9995C126.791 14.4432 127.406 15.1085 127.822 15.9198C128.253 16.7536 128.475 17.6999 128.464 18.6605C128.483 19.3727 128.367 20.0812 128.124 20.741C127.881 21.4008 127.517 21.9973 127.055 22.4925ZM123.532 22.0104C124.074 22.0217 124.608 21.8759 125.083 21.5874C125.533 21.3099 125.904 20.8981 126.153 20.3989C126.413 19.8683 126.544 19.2724 126.535 18.669C126.548 18.2255 126.48 17.7837 126.335 17.37C126.19 16.9564 125.971 16.5796 125.691 16.2624C125.105 15.6561 124.334 15.3188 123.532 15.3188C122.731 15.3188 121.959 15.6561 121.374 16.2624C121.093 16.5786 120.874 16.9546 120.729 17.3675C120.583 17.7805 120.516 18.2219 120.529 18.6648C120.516 19.107 120.583 19.5478 120.728 19.9601C120.874 20.3724 121.093 20.7477 121.374 21.0629C121.655 21.377 121.992 21.6233 122.364 21.7863C122.735 21.9493 123.133 22.0256 123.532 22.0104Z" fill="white"/>
<path id="Vector_11" d="M135.41 13.3142C136.047 13.2924 136.681 13.4164 137.272 13.6784C137.864 13.9404 138.4 14.3348 138.848 14.8369C139.297 15.3399 139.649 15.9385 139.882 16.5965C140.116 17.2544 140.227 17.958 140.208 18.6647C140.225 19.3675 140.113 20.0669 139.88 20.721C139.647 21.3751 139.298 21.9704 138.852 22.4713C138.404 22.972 137.867 23.3652 137.275 23.6264C136.684 23.8876 136.05 24.0113 135.414 23.9897C134.814 24.0056 134.218 23.8905 133.659 23.651C133.099 23.4115 132.588 23.0523 132.155 22.5939L131.918 23.7444H130.481V9.89673H132.392V14.507C133.235 13.7204 134.307 13.2969 135.41 13.3142ZM133.098 21.0459C133.678 21.6621 134.45 22.0063 135.253 22.0063C136.056 22.0063 136.829 21.6621 137.408 21.0459C137.689 20.7327 137.911 20.3593 138.058 19.9485C138.205 19.5377 138.275 19.098 138.264 18.6562C138.275 18.2144 138.205 17.7747 138.058 17.3639C137.911 16.9531 137.689 16.5797 137.408 16.2665C137.126 15.9509 136.788 15.7038 136.415 15.5407C136.042 15.3776 135.642 15.3021 135.242 15.3191C134.708 15.3098 134.181 15.4556 133.713 15.742C133.259 16.0232 132.884 16.4373 132.628 16.939C132.369 17.4635 132.237 18.0539 132.246 18.652C132.235 19.0941 132.304 19.5342 132.45 19.9458C132.597 20.3573 132.817 20.7316 133.098 21.0459Z" fill="white"/>
<path id="Vector_12" d="M149.934 13.5638H151.405V23.7656H149.877L149.686 22.5179C149.255 23.0079 148.736 23.3936 148.164 23.6505C147.591 23.9075 146.976 24.0302 146.358 24.0109C145.721 24.0308 145.087 23.9052 144.495 23.6417C143.904 23.3783 143.367 22.9828 142.92 22.4798C142.47 21.9817 142.115 21.3873 141.879 20.7329C141.643 20.0785 141.529 19.3778 141.545 18.6732C141.527 17.9675 141.64 17.2653 141.876 16.6094C142.111 15.9535 142.465 15.3575 142.915 14.8577C143.366 14.358 143.903 13.9649 144.495 13.7025C145.087 13.4401 145.721 13.3137 146.358 13.3312C146.983 13.3111 147.605 13.4354 148.183 13.6961C148.762 13.9568 149.286 14.3482 149.72 14.8454L149.934 13.5638ZM144.33 21.0544C144.613 21.369 144.951 21.6161 145.324 21.7805C145.696 21.9449 146.095 22.0231 146.496 22.0103C146.895 22.0241 147.292 21.9462 147.662 21.7817C148.032 21.6172 148.367 21.3696 148.647 21.0544C148.927 20.7387 149.146 20.3634 149.291 19.9512C149.436 19.539 149.504 19.0984 149.491 18.6563C149.504 18.2147 149.436 17.7747 149.291 17.3632C149.146 16.9516 148.927 16.5771 148.647 16.2623C148.365 15.9492 148.028 15.7039 147.656 15.5416C147.285 15.3793 146.887 15.3036 146.488 15.3191C145.954 15.3099 145.427 15.4557 144.96 15.7421C144.505 16.0222 144.13 16.4366 143.875 16.939C143.613 17.4626 143.481 18.0537 143.493 18.652C143.476 19.0946 143.542 19.5362 143.686 19.9495C143.83 20.3627 144.049 20.7388 144.33 21.0544Z" fill="white"/>
<path id="Vector_13" d="M154.103 23.7655V9.89673H155.994V23.7655H154.103Z" fill="white"/>
<path id="Vector_14" d="M164.369 23.7655V9.89673H166.26V23.7655H164.369Z" fill="white"/>
<path id="Vector_15" d="M174.032 13.3355C174.51 13.3122 174.987 13.4068 175.428 13.6123C175.87 13.8178 176.264 14.1292 176.584 14.524C177.235 15.3871 177.573 16.4878 177.531 17.6116V23.7656H175.621V18.0345C175.676 17.2853 175.495 16.5382 175.109 15.9198C174.915 15.6712 174.672 15.476 174.398 15.3497C174.124 15.2235 173.827 15.1695 173.531 15.1923C173.196 15.1846 172.863 15.2587 172.556 15.4092C172.249 15.5598 171.975 15.7832 171.755 16.0636C171.276 16.6822 171.026 17.4785 171.056 18.2925V23.7656H169.146V13.5639H170.46L170.842 14.9808C171.197 14.4597 171.663 14.0441 172.198 13.7711C172.772 13.4748 173.399 13.3259 174.032 13.3355Z" fill="white"/>
<path id="Vector_16" d="M184.255 24.0109C183.617 24.023 182.984 23.8927 182.393 23.6277C181.801 23.3628 181.264 22.9687 180.814 22.4689C180.363 21.9691 180.008 21.374 179.769 20.7189C179.531 20.0639 179.414 19.3624 179.426 18.6563C179.41 17.9502 179.526 17.248 179.765 16.5932C180.004 15.9385 180.362 15.345 180.817 14.8497C181.663 13.9542 182.767 13.4166 183.936 13.3307C185.104 13.2449 186.262 13.6164 187.208 14.3802C188.034 15.0728 188.61 16.0685 188.832 17.1886H186.952C186.726 16.6234 186.352 16.1461 185.879 15.8182C185.392 15.4841 184.828 15.311 184.255 15.3191C183.742 15.3149 183.237 15.4643 182.793 15.7517C182.35 16.0391 181.985 16.4537 181.738 16.9518C181.479 17.4769 181.348 18.0669 181.356 18.6647C181.345 19.1032 181.414 19.5396 181.558 19.9484C181.701 20.3572 181.917 20.7303 182.192 21.046C182.456 21.3581 182.775 21.6053 183.131 21.7715C183.486 21.9376 183.869 22.019 184.255 22.0103C184.832 22.0243 185.399 21.8436 185.881 21.4923C186.362 21.141 186.736 20.6357 186.952 20.0436H188.863C188.632 21.187 188.048 22.2055 187.212 22.9239C186.369 23.6529 185.325 24.0369 184.255 24.0109Z" fill="white"/>
<path id="Vector_17" d="M12.3704 0.693127C10.2256 0.690391 8.1017 1.1606 6.12277 2.07632C4.14383 2.99204 2.34944 4.33493 0.844304 6.02663C3.28425 3.95977 6.20175 2.92353 9.59679 2.91789C11.6655 2.89642 13.7136 3.37416 15.5986 4.31788C17.4108 5.22294 19.0039 6.58963 20.248 8.30638C21.5153 10.0561 22.4016 12.1054 22.8382 14.2955H18.2538C17.661 12.3471 16.5101 10.666 14.9759 9.50758C13.3941 8.34096 11.5276 7.73873 9.62735 7.78191C8.34894 7.73977 7.0767 7.99421 5.8924 8.52887C4.7081 9.06353 3.63793 9.86658 2.75067 10.8864C0.916891 12.9505 0 15.577 0 18.7661C0 21.9552 0.907977 24.579 2.72393 26.6374C3.61513 27.6501 4.68644 28.447 5.87012 28.9777C7.05379 29.5084 8.32407 29.7615 9.60061 29.7208C11.5633 29.7671 13.4877 29.1148 15.0905 27.8597C16.6484 26.6128 17.7869 24.827 18.3264 22.7842H22.9414C22.3366 26.1658 20.6723 29.2022 18.2423 31.3576C15.788 33.5142 12.7293 34.6514 9.59679 34.5721C6.82826 34.6367 4.10315 33.8031 1.75737 32.1739C3.73304 34.0711 6.09426 35.4105 8.63921 36.0776C11.1842 36.7446 13.8372 36.7196 16.3715 36.0045C18.9058 35.2895 21.246 33.9057 23.1921 31.9715C25.1383 30.0372 26.6325 27.6101 27.547 24.8974C28.4615 22.1848 28.7691 19.2673 28.4436 16.3944C28.1181 13.5215 27.1691 10.7785 25.6777 8.40002C24.1863 6.02151 22.1969 4.07815 19.8795 2.73604C17.5621 1.39393 14.9857 0.692991 12.3704 0.693127Z" fill="white"/>
</g>
</svg>
