<svg width="1440" height="556" viewBox="0 0 1440 556" fill="none" xmlns="http://www.w3.org/2000/svg">
<mask id="mask0_2379_1727" style="mask-type:alpha" maskUnits="userSpaceOnUse" x="0" y="0" width="1444" height="556">
<path d="M0 0H1444V556H722H0V0Z" fill="#2D2D2D"/>
</mask>
<g mask="url(#mask0_2379_1727)">
<path d="M1571.47 455.703C1575.73 455.659 1579.65 453.359 1581.76 449.66L1709.78 225.734C1716.18 214.554 1733.29 219.924 1732.15 232.752L1707.01 515.686C1706.63 520.004 1703.94 523.779 1699.99 525.562L908.616 882.641C897.44 887.684 886.787 874.696 893.92 864.722L1180 464.707C1182.23 461.593 1185.81 459.728 1189.64 459.688L1571.47 455.703Z" fill="white" fill-opacity="0.15"/>
<path d="M1727.31 128.556L1741.07 117.367C1751.59 108.813 1766 121.538 1758.81 133.037L1570.18 434.903C1568.03 438.35 1564.28 440.473 1560.21 440.542L1257.71 445.734C1245.52 445.943 1240.82 429.954 1251.18 423.535L1727.31 128.556Z" fill="white" fill-opacity="0.15"/>
<path d="M1434.69 119.69C1436.03 117.189 1438.21 115.243 1440.84 114.197L1809.06 -31.9537C1818.88 -35.85 1828.58 -26.0801 1824.61 -16.2921L1788.27 73.3512C1787.29 75.7784 1785.54 77.8171 1783.29 79.1562L1660.49 152.209L1334.19 355.033C1323.76 361.515 1311.48 350.008 1317.27 339.181L1434.69 119.69Z" fill="white" fill-opacity="0.15"/>
</g>
</svg>
