<svg width="251" height="1272" viewBox="0 0 251 1272" fill="none" xmlns="http://www.w3.org/2000/svg">
<path d="M-249.542 712.311C-252.403 711.13 -254.697 708.89 -255.944 706.058L-387.998 406.337C-393.52 393.803 -412.353 398.816 -410.912 412.437L-322.008 1253.02C-321.078 1261.81 -311.283 1266.61 -303.764 1261.96L231.038 931.313C239.364 926.165 238.355 913.75 229.307 910.014L-249.542 712.311Z" fill="white" fill-opacity="0.15"/>
<path d="M-97.5 506.5L-252.862 279.407C-261.16 267.278 -279.802 277.831 -273.672 291.188L-52.973 772.101C-51.6778 774.923 -49.3388 777.133 -46.4477 778.267L136.103 849.854C147.4 854.285 157.383 841.064 150.029 831.411L-97.5 506.5Z" fill="white" fill-opacity="0.15"/>
<path d="M66.518 383.361C66.1835 380.545 64.8624 377.938 62.7889 376.003L-276.248 59.615C-286.07 50.449 -301.233 61.8822 -295.122 73.8467L-68.0065 518.508C-67.6695 519.168 -67.2723 519.795 -66.8197 520.382L83.4611 715.112C90.9021 724.753 106.314 718.459 104.877 706.365L66.518 383.361Z" fill="white" fill-opacity="0.15"/>
<path d="M-6.78833 -39.5363C-7.08919 -42.4147 -8.4202 -45.0875 -10.5361 -47.062L-352.803 -366.465C-362.506 -375.52 -377.556 -364.453 -371.806 -352.492L-111.489 188.944C-110.835 190.302 -109.932 191.526 -108.826 192.55L7.59741 300.334C15.7242 307.858 28.8359 301.296 27.6847 290.281L-6.78833 -39.5363Z" fill="white" fill-opacity="0.15"/>
</svg>
