<svg width="1440" height="1539" viewBox="0 0 1440 1539" fill="none" xmlns="http://www.w3.org/2000/svg">
<path d="M1571.9 448.692C1574.99 448.768 1578 447.645 1580.28 445.559L1822.18 224.751C1832.3 215.517 1847.5 227.713 1840.68 239.59L1419.71 972.574C1415.31 980.241 1404.41 980.676 1399.41 973.385L1043.81 454.838C1038.27 446.764 1044.21 435.816 1054 436.055L1571.9 448.692Z" fill="white" fill-opacity="0.15"/>
<path d="M1136.97 624.704C1143.09 633.565 1135.34 645.382 1124.78 643.3L870.116 593.129C860.226 591.181 857 578.645 864.72 572.165L1003.95 455.291C1009.37 450.745 1017.52 451.843 1021.54 457.66L1136.97 624.704Z" fill="white" fill-opacity="0.15"/>
<path d="M1156.84 669.761C1159.35 670.258 1161.64 671.547 1163.37 673.439L1290.85 812.958C1298.2 821.009 1291.88 833.905 1281.01 833.012L551.335 773.08C539.348 772.095 536.101 756.051 546.761 750.483L822.606 606.405C825.028 605.14 827.808 604.74 830.488 605.269L1156.84 669.761Z" fill="white" fill-opacity="0.15"/>
<path d="M400.01 818.772C400.01 825.4 394.637 830.772 388.01 830.772L88.4682 830.772C85.2869 830.772 82.2358 829.509 79.9856 827.26L-162.771 584.653C-171.561 575.868 -162.842 561.156 -150.916 564.649L391.383 723.473C396.496 724.971 400.01 729.661 400.01 734.99L400.01 818.772Z" fill="white" fill-opacity="0.15"/>
<path d="M1517.05 199.924L1822.3 10.7326C1833.33 3.89165 1845.86 17.0156 1838.51 27.7224L1566.69 423.804C1564.39 427.155 1560.55 429.115 1556.49 429.01L1166.05 418.944C1153.81 418.629 1149.85 402.348 1160.57 396.439L1517.05 199.924Z" fill="white" fill-opacity="0.15"/>
<path d="M1415.7 20.0844C1417.15 17.6433 1419.41 15.7926 1422.09 14.8604L1860.44 -137.693C1873.11 -142.104 1882.37 -125.552 1871.97 -117.064L1499.05 187.392C1498.49 187.847 1497.89 188.251 1497.26 188.599L1266.56 316.116C1255.86 322.03 1244.2 310.027 1250.42 299.504L1415.7 20.0844Z" fill="white" fill-opacity="0.15"/>
</svg>
