<svg width="1440" height="420" viewBox="0 0 1440 420" fill="none" xmlns="http://www.w3.org/2000/svg">
<mask id="mask0_1145_1258" style="mask-type:alpha" maskUnits="userSpaceOnUse" x="0" y="0" width="1440" height="420">
<rect width="1440" height="420" fill="#F85C3A"/>
</mask>
<g mask="url(#mask0_1145_1258)">
<path d="M1287.04 434.128C1286.28 437.126 1284.38 439.713 1281.75 441.348L1024.64 601.286C1013.01 608.521 1020.62 626.459 1033.91 623.112L1798.43 430.465C1807 428.305 1810.37 417.931 1804.71 411.142L1427.93 -40.5573C1421.66 -48.0747 1409.51 -45.3253 1407.09 -35.8405L1287.04 434.128Z" fill="#F97458"/>
<path d="M1557.79 81.4971C1564.66 89.7926 1578.13 85.5382 1578.99 74.8018L1598.21 -165.009C1599.01 -175.057 1587.82 -181.56 1579.49 -175.885L1440.24 -81.0236C1434.39 -77.0428 1433.24 -68.898 1437.75 -63.4523L1557.79 81.4971Z" fill="#F97458"/>
<path d="M973.49 414.612L830.509 543.826C820.914 552.498 829.937 568.124 842.244 564.148L1266.73 427.024C1270.64 425.763 1273.62 422.595 1274.66 418.625L1368.95 55.9387C1372.02 44.1448 1357.59 35.8186 1348.91 44.3753L973.49 414.612Z" fill="#F97458"/>
<path d="M931.738 255.909C930.107 256.674 928.67 257.796 927.533 259.192L695.581 543.865C687.137 554.229 699.41 568.555 710.947 561.8L932.23 432.244C933.073 431.75 933.854 431.154 934.553 430.471L1230.17 141.628C1239.84 132.178 1228.93 116.437 1216.69 122.182L931.738 255.909Z" fill="#F97458"/>
<path d="M616.612 436.049L383.367 626.738C371.953 636.07 384.166 653.782 396.947 646.43L765.392 434.473C766.638 433.756 767.745 432.822 768.66 431.714L869.326 309.853C877.94 299.425 865.404 284.933 853.845 291.954L616.612 436.049Z" fill="#F97458"/>
<path d="M393.559 438.891C391.461 439.428 389.548 440.523 388.022 442.06L138.419 693.371C128.35 703.509 141.254 719.601 153.337 711.976L543.459 465.777L663.299 394.082C675.179 386.974 667.572 368.725 654.161 372.159L393.559 438.891Z" fill="#F97458"/>
</g>
</svg>
