<svg width="1440" height="404" viewBox="0 0 1440 404" fill="none" xmlns="http://www.w3.org/2000/svg">
<rect width="1440" height="404" fill="#F85C3A"/>
<mask id="mask0_1145_1212" style="mask-type:alpha" maskUnits="userSpaceOnUse" x="0" y="0" width="1440" height="404">
<rect width="1440" height="404" fill="#F6F6F6"/>
</mask>
<g mask="url(#mask0_1145_1212)">
<path d="M176.005 533.242C176.981 536.179 179.053 538.625 181.79 540.07L341.502 624.401C353.614 630.796 347.28 649.227 333.795 646.827L-165.717 557.898C-174.42 556.348 -178.518 546.238 -173.348 539.066L53.3904 224.504C59.1145 216.563 71.4268 218.448 74.5131 227.738L176.005 533.242Z" fill="white" fill-opacity="0.3"/>
<path d="M-17.7725 302.077C-24.0395 310.837 -37.7801 307.544 -39.3962 296.895L-61.4191 151.787C-62.9316 141.821 -52.2267 134.544 -43.5161 139.617L45.3119 191.346C51.4221 194.905 53.1467 202.948 49.0326 208.698L-17.7725 302.077Z" fill="white" fill-opacity="0.3"/>
<path d="M315.042 447.003L437.184 543.931C448.433 552.858 437.348 570.422 424.449 564.109L158.115 433.759C155.168 432.316 152.94 429.73 151.949 426.602L110.925 296.99C107.256 285.399 121.169 276.329 130.295 284.362L315.042 447.003Z" fill="white" fill-opacity="0.3"/>
<path d="M399.667 347.418C402.453 347.951 404.959 349.453 406.743 351.659L577.25 562.491C585.698 572.937 573.221 587.252 561.719 580.31L309.044 427.807C308.41 427.424 307.812 426.983 307.259 426.49L201.503 332.212C192.412 324.107 199.781 309.18 211.743 311.468L399.667 347.418Z" fill="white" fill-opacity="0.3"/>
<path d="M666.706 413.486C669.556 413.989 672.128 415.506 673.948 417.757L847.233 632.024C855.579 642.343 843.475 656.573 831.951 649.99L518.165 470.755C516.856 470.008 515.699 469.02 514.756 467.844L458.796 398.084C451.866 389.446 459.339 376.831 470.245 378.759L666.706 413.486Z" fill="white" fill-opacity="0.3"/>
</g>
<mask id="mask1_1145_1212" style="mask-type:alpha" maskUnits="userSpaceOnUse" x="0" y="0" width="1440" height="404">
<rect width="1440" height="404" transform="matrix(-1 0 0 1 1440 0)" fill="#F6F6F6"/>
</mask>
<g mask="url(#mask1_1145_1212)">
<path d="M1263.99 533.242C1263.02 536.179 1260.95 538.625 1258.21 540.07L1098.5 624.401C1086.39 630.796 1092.72 649.227 1106.2 646.827L1605.72 557.898C1614.42 556.348 1618.52 546.238 1613.35 539.066L1386.61 224.504C1380.89 216.563 1368.57 218.448 1365.49 227.738L1263.99 533.242Z" fill="white" fill-opacity="0.3"/>
<path d="M1457.77 302.077C1464.04 310.837 1477.78 307.544 1479.4 296.895L1501.42 151.787C1502.93 141.821 1492.23 134.544 1483.52 139.617L1394.69 191.346C1388.58 194.905 1386.85 202.948 1390.97 208.698L1457.77 302.077Z" fill="white" fill-opacity="0.3"/>
<path d="M1124.96 447.003L1002.82 543.931C991.567 552.858 1002.65 570.422 1015.55 564.109L1281.89 433.759C1284.83 432.316 1287.06 429.73 1288.05 426.602L1329.08 296.99C1332.74 285.399 1318.83 276.329 1309.71 284.362L1124.96 447.003Z" fill="white" fill-opacity="0.3"/>
<path d="M1040.33 347.418C1037.55 347.951 1035.04 349.453 1033.26 351.659L862.75 562.491C854.302 572.937 866.779 587.252 878.281 580.31L1130.96 427.807C1131.59 427.424 1132.19 426.983 1132.74 426.49L1238.5 332.212C1247.59 324.107 1240.22 309.18 1228.26 311.468L1040.33 347.418Z" fill="white" fill-opacity="0.3"/>
<path d="M773.294 413.486C770.444 413.989 767.872 415.506 766.052 417.757L592.767 632.024C584.421 642.343 596.525 656.573 608.049 649.99L921.835 470.755C923.144 470.008 924.301 469.02 925.244 467.844L981.204 398.084C988.134 389.446 980.661 376.831 969.755 378.759L773.294 413.486Z" fill="white" fill-opacity="0.3"/>
</g>
</svg>
