<svg width="547" height="553" viewBox="0 0 547 553" fill="none" xmlns="http://www.w3.org/2000/svg">
<path d="M841.655 251.311C844.515 250.13 846.809 247.889 848.057 245.057L980.11 -54.6635C985.632 -67.1976 1004.47 -62.1838 1003.02 -48.5631L914.12 792.017C913.19 800.809 903.396 805.611 895.876 800.962L361.075 470.312C352.748 465.165 353.757 452.75 362.806 449.014L841.655 251.311Z" fill="white" fill-opacity="0.15"/>
<path d="M514.928 588.053C524.109 593.684 521.797 607.623 511.289 609.989L258.071 666.994C248.237 669.208 240.221 659.044 244.665 649.997L324.802 486.83C327.919 480.484 335.82 478.194 341.847 481.891L514.928 588.053Z" fill="white" fill-opacity="0.15"/>
<path d="M690.963 45.9182L893.739 -250.48C901.071 -261.197 917.832 -254.254 915.437 -241.491L826.838 230.648C826.088 234.643 823.367 237.987 819.608 239.533L458.391 388.086C447.072 392.741 436.865 379.452 444.282 369.716L690.963 45.9182Z" fill="white" fill-opacity="0.15"/>
<path d="M525.594 -77.6385C525.929 -80.4548 527.25 -83.0617 529.323 -84.9966L868.656 -401.661C878.468 -410.818 893.622 -399.416 887.541 -387.452L669.432 41.7285C669.106 42.3698 668.723 42.9806 668.288 43.5533L508.779 253.415C501.381 263.148 485.867 256.879 487.309 244.738L525.594 -77.6385Z" fill="white" fill-opacity="0.15"/>
</svg>
