<svg width="358" height="1272" viewBox="0 0 358 1272" fill="none" xmlns="http://www.w3.org/2000/svg">
<path d="M608.542 712.311C611.403 711.13 613.697 708.89 614.944 706.058L746.998 406.337C752.52 393.803 771.353 398.816 769.912 412.437L681.008 1253.02C680.078 1261.81 670.283 1266.61 662.764 1261.96L127.962 931.313C119.636 926.165 120.645 913.75 129.693 910.014L608.542 712.311Z" fill="white" fill-opacity="0.15"/>
<path d="M281.815 1049.05C290.997 1054.68 288.685 1068.62 278.177 1070.99L24.9588 1127.99C15.1248 1130.21 7.10856 1120.04 11.5523 1111L91.6897 947.83C94.8068 941.484 102.708 939.194 108.735 942.891L281.815 1049.05Z" fill="white" fill-opacity="0.15"/>
<path d="M456.5 506.5L611.862 279.407C620.16 267.278 638.802 277.831 632.672 291.188L411.973 772.101C410.678 774.923 408.339 777.133 405.448 778.267L222.897 849.854C211.6 854.285 201.617 841.064 208.971 831.411L456.5 506.5Z" fill="white" fill-opacity="0.15"/>
<path d="M292.482 383.361C292.816 380.545 294.138 377.938 296.211 376.003L635.248 59.615C645.07 50.449 660.233 61.8822 654.122 73.8467L427.006 518.508C426.67 519.168 426.272 519.795 425.82 520.382L275.539 715.112C268.098 724.753 252.686 718.459 254.123 706.365L292.482 383.361Z" fill="white" fill-opacity="0.15"/>
<path d="M365.788 -39.5363C366.089 -42.4147 367.42 -45.0875 369.536 -47.062L711.803 -366.465C721.506 -375.52 736.556 -364.453 730.806 -352.492L470.489 188.944C469.835 190.302 468.932 191.526 467.826 192.55L351.403 300.334C343.276 307.858 330.164 301.296 331.315 290.281L365.788 -39.5363Z" fill="white" fill-opacity="0.15"/>
</svg>
