<svg width="1440" height="700" viewBox="0 0 1440 700" fill="none" xmlns="http://www.w3.org/2000/svg">
<path d="M1349.11 645.268C1353.23 646.372 1357.62 645.211 1360.65 642.218L1601.46 404.535C1610.62 395.489 1625.66 405.269 1621.11 417.317L1489.98 764.436C1488.45 768.491 1484.85 771.404 1480.56 772.058L393.553 937.784C381.432 939.632 374.669 924.255 384.224 916.57L873.753 522.818C876.736 520.418 880.686 519.586 884.384 520.578L1349.11 645.268Z" fill="white" fill-opacity="0.15"/>
<path d="M240.66 699.215C248.071 707.031 242.23 719.897 231.468 719.462L-234.95 700.623C-245.022 700.216 -250.134 688.325 -243.5 680.735L-28.3379 434.589C-23.6845 429.265 -15.4603 429.099 -10.5952 434.23L240.66 699.215Z" fill="white" fill-opacity="0.15"/>
<path d="M1645.5 303L1682.5 286.911C1694.93 281.505 1705.39 297.64 1695.37 306.78L1351.69 620.419C1348.68 623.159 1344.5 624.193 1340.56 623.166L962.003 524.32C950.209 521.24 949.987 504.576 961.694 501.183L1645.5 303Z" fill="white" fill-opacity="0.15"/>
<path d="M1296.55 192.928C1298.51 190.88 1301.14 189.593 1303.96 189.295L1805.15 136.336C1815.65 135.226 1822.36 147.247 1815.91 155.605L1736.97 257.806C1735.37 259.878 1733.13 261.37 1730.6 262.054L1557 309L1084.54 446.686C1072.75 450.121 1064.02 435.733 1072.51 426.865L1296.55 192.928Z" fill="white" fill-opacity="0.15"/>
<path d="M1609.55 -100.755C1611.52 -102.873 1614.19 -104.207 1617.07 -104.511L2082.63 -153.705C2095.83 -155.1 2101.19 -137.205 2089.4 -131.111L1555.71 144.738C1554.37 145.43 1552.91 145.863 1551.41 146.016L1393.57 162.061C1382.55 163.181 1376.03 150.05 1383.57 141.945L1609.55 -100.755Z" fill="white" fill-opacity="0.15"/>
</svg>
