<svg width="547" height="553" viewBox="0 0 547 553" fill="none" xmlns="http://www.w3.org/2000/svg">
<path d="M-295.542 251.311C-298.403 250.13 -300.697 247.889 -301.944 245.057L-433.998 -54.6636C-439.52 -67.1977 -458.353 -62.1839 -456.912 -48.5632L-368.008 792.017C-367.078 800.809 -357.283 805.611 -349.764 800.962L185.038 470.312C193.364 465.165 192.355 452.75 183.307 449.014L-295.542 251.311Z" fill="white" fill-opacity="0.15"/>
<path d="M31.1841 588.053C22.0029 593.684 24.315 607.623 34.8228 609.989L288.041 666.994C297.875 669.208 305.891 659.044 301.447 649.997L221.31 486.83C218.193 480.484 210.292 478.194 204.265 481.891L31.1841 588.053Z" fill="white" fill-opacity="0.15"/>
<path d="M-144.851 45.9182L-347.627 -250.48C-354.959 -261.197 -371.72 -254.254 -369.325 -241.491L-280.725 230.648C-279.976 234.643 -277.255 237.987 -273.495 239.533L87.721 388.086C99.0403 392.741 109.248 379.452 101.831 369.716L-144.851 45.9182Z" fill="white" fill-opacity="0.15"/>
<path d="M20.5179 -77.6385C20.1835 -80.4548 18.8623 -83.0617 16.7889 -84.9966L-322.544 -401.661C-332.356 -410.818 -347.51 -399.416 -341.429 -387.452L-123.32 41.7285C-122.994 42.3698 -122.611 42.9805 -122.176 43.5533L37.333 253.415C44.7311 263.148 60.2447 256.879 58.8029 244.738L20.5179 -77.6385Z" fill="white" fill-opacity="0.15"/>
</svg>
